PathFileType	4	(X/Y/Z)	18_2_rein_46_p0_0-554_filt_butterworth.trc
DataRate	CameraRate	NumFrames	NumMarkers	Units	OrigDataRate	OrigDataStartFrame	OrigNumFrames
59.0	59.0	6	27	m	59.0	138	554
Frame#	Time	RHip			RKnee			RAnkle			RBigToe			RSmallToe			RHeel			LHip			LKnee			LAnkle			LBigToe			LSmallToe			LHeel			Neck			Head			Nose			RShoulder			RElbow			RWrist			RThumb			RIndex			RPinky			LShoulder			LElbow			LWrist			LThumb			LIndex			LPinky			
		X1	Y1	Z1	X2	Y2	Z2	X3	Y3	Z3	X4	Y4	Z4	X5	Y5	Z5	X6	Y6	Z6	X7	Y7	Z7	X8	Y8	Z8	X9	Y9	Z9	X10	Y10	Z10	X11	Y11	Z11	X12	Y12	Z12	X13	Y13	Z13	X14	Y14	Z14	X15	Y15	Z15	X16	Y16	Z16	X17	Y17	Z17	X18	Y18	Z18	X19	Y19	Z19	X20	Y20	Z20	X21	Y21	Z21	X22	Y22	Z22	X23	Y23	Z23	X24	Y24	Z24	X25	Y25	Z25	X26	Y26	Z26	X27	Y27	Z27	
138	2.3389830508474576	0.24584614407698271	0.7978886105047327	0.5608905290579157	0.23303359004344212	0.3632029923671642	0.5917994677447007	0.2308470246898695	-0.026566113813438624	0.6056158018513766	0.2156269103977203	-0.029878230134459276	0.4121699750144621	0.2715722772314899	-0.03678005589482623	0.4404385813045475	0.2162900473726414	-0.10828256198877245	0.6734370943936718	0.038088559035959556	0.7922213405747529	0.5740568248778157	0.03903943474381692	0.35853032659288475	0.5754021431934712	0.0366317213290531	-0.03881424733424798	0.5731253458013589	0.0913576467155449	-0.0651560065812319	0.4491411083111208	0.014094882120685076	-0.053368128799610344	0.4416488804899995	0.042852079519931	-0.07828012375851648	0.6095481198561035	0.1583642574454587	1.2964537590275935	0.585354470491772	0.1891972241148499	1.5420548354862633	0.5162287887911567	0.16218285181929243	1.432381013914683	0.42304142173505094	0.3153423155881881	1.218024368110144	0.5574385423135859	0.37733868684697963	0.9387504161122495	0.5927829276207377	0.3669329244653184	0.7000798262252651	0.5242968585911121	0.32309880128263957	0.5867998262571797	0.4680962510138617	0.3304730219880996	0.5713876878517943	0.4736981808673324	0.3570526113296145	0.5630084264836753	0.513389649838718	0.011913256783426782	1.2306470167705772	0.5634838450813371	-0.06106732676264831	0.9756774569843871	0.5563749349935867	-0.03856910162689278	0.7373872424590928	0.49083900843541095	0.00651075022808713	0.6270815907757843	0.4680356121415468	-0.016072879374148526	0.6158346481318032	0.44100580069075046	-0.059919321617386764	0.5957542772193337	0.4905673117868526	
139	2.3559322033898304	0.2458392408051833	0.7978238849602323	0.5608648748391437	0.2328444658609026	0.3631781770580799	0.5924981337400257	0.23082643795103436	-0.026536586741351426	0.6056249950685456	0.21562490590891376	-0.029880807545344903	0.41216807453256055	0.27157477211342895	-0.03676010507957181	0.44040824161642067	0.21625765761154142	-0.10795940567051641	0.6732161356943971	0.03809501970640137	0.7921000409195292	0.5738984823886276	0.03905225896898405	0.35857319142258326	0.5754286975649725	0.03663098264960665	-0.03881577717035002	0.5731200264546841	0.09147502040531363	-0.06513657271268732	0.44913611140460763	0.013517361703650616	-0.05316245678045646	0.4413805478558104	0.04286910138177338	-0.0781351485736893	0.609318296046638	0.15836386166120314	1.2963926105527344	0.5853225584160081	0.18918644216147662	1.5426859249048912	0.5165121057651633	0.16281034056893462	1.4325751166498637	0.4234833959828192	0.31523137295608383	1.218318882321573	0.5576748739776979	0.3773403950096961	0.9387359343990969	0.5927821707092084	0.36645689601525194	0.7000316282497628	0.5244093697862964	0.32318379238699985	0.585880357731216	0.4684648576994498	0.33046710664156015	0.5714428677378794	0.4737643536209621	0.3577928101784881	0.562810965991647	0.513950596294064	0.01191785430942987	1.230628683504987	0.563476517820652	-0.0610828359820656	0.9756244163499028	0.5564671359925358	-0.03860506194741352	0.7382580941587509	0.49079884985126077	0.0063071555254100905	0.6267511470141842	0.4676214818039374	-0.016333658797107284	0.6165521843365391	0.4393897497004821	-0.059849763452877916	0.5949115235445968	0.49038113954771906	
140	2.372881355932204	0.24582016760407543	0.7977718385951671	0.560884938734252	0.232560601120037	0.36297957502937206	0.5934491288525411	0.2308036197889349	-0.026536910526811078	0.6056448291940933	0.2156187998252906	-0.029881177654296882	0.4121247766341059	0.271594776638341	-0.036718936328509706	0.4403186159111298	0.2161748493140186	-0.10756805591272631	0.672807484004978	0.038100205054450005	0.7919720476014451	0.573797021212459	0.03905920617108791	0.3586468800121997	0.5754484003382435	0.03662880080684974	-0.03882071226690792	0.5731198508126688	0.09136186664085014	-0.06506924675179046	0.44904748774550307	0.013337723788680065	-0.05307188332667761	0.44129294913798073	0.04274765524289121	-0.07783446440560737	0.6088543884775739	0.1583638308564561	1.2963792049360294	0.5853046690351935	0.18916477478514696	1.5433726173907472	0.5168152715620805	0.16317745589202715	1.4325814892920514	0.42374410380345273	0.31566943877719417	1.218776426812592	0.5578408133362818	0.37734628411127424	0.9387147608488158	0.592778207512684	0.3662270860866762	0.7000589695603254	0.5240068183426965	0.3231945460855502	0.584959554657002	0.4686491929885417	0.3304575482199926	0.571497265800594	0.47379538346047734	0.3586056744259404	0.56259207494746	0.5146658809472656	0.01191140490019461	1.2305794930473786	0.5634563447503627	-0.06104433822062243	0.9755756588887764	0.5565295844670343	-0.03863239780795183	0.7387976167983281	0.49085615386918036	0.005738995913446076	0.6266066637958072	0.4672751354855673	-0.016725566522419195	0.6169926618665749	0.4383649743604951	-0.059691733706829384	0.5939724813938277	0.49027637141596503	
141	2.389830508474576	0.24578579629219446	0.7976454418946268	0.560914617731207	0.23218245476982607	0.3626071037302945	0.59464288600097	0.2307821626427261	-0.026569802278693752	0.6056753961048602	0.2156086537291504	-0.029881636867894933	0.4120593410501482	0.27162605901046505	-0.036676926125935365	0.44020127274041204	0.21608045591059197	-0.10718208664017102	0.6723652364391739	0.03810681590307968	0.7918033784692062	0.5737287601870051	0.03905900317299612	0.3587357325716124	0.5754783885270501	0.03662558712474661	-0.03882721049921873	0.5731243856987559	0.09084629478624809	-0.06493850839217694	0.4488424259664102	0.013414608093848956	-0.05305937046032572	0.4413489053667361	0.04251654973298626	-0.07750369442479248	0.6083501578228034	0.15836294350298563	1.2964039922750084	0.5852941510578835	0.18913880060542504	1.5440292714653119	0.5171066525243524	0.16326804159968022	1.4324900031370884	0.4238348566505113	0.31655040932939427	1.219305465426638	0.5578788695619047	0.37735545277301663	0.938693545820727	0.5927715387660003	0.3663408740381421	0.7001777048719487	0.5228998840252681	0.323157845559704	0.5841568649470409	0.4686552678330611	0.3304524638534997	0.5714552476165253	0.47372905220748096	0.3592376511315566	0.5624303407906778	0.5151260413804037	0.011892998015144225	1.2304920346081665	0.5634297890666801	-0.06094220153905389	0.9756003666094191	0.5564330042999497	-0.038730146349810715	0.7390803019831039	0.4906159357486142	0.004994264713901568	0.626637776872581	0.46703903340067837	-0.01735873447152899	0.6170482821256643	0.4381559859455282	-0.05960502683408837	0.5932974224533323	0.48994180414812094	
142	2.406779661016949	0.24573996358582173	0.7973944210392577	0.5609154655446679	0.23173174970091373	0.3620580790777606	0.5960434839423634	0.23076535046698843	-0.026614999200099812	0.6057132524135334	0.2155968169442661	-0.02988130935847854	0.41199362364877073	0.2716448197717519	-0.036691593417013606	0.4401495154169544	0.21601167379731678	-0.1068594752991524	0.6720345196457282	0.038114619645024335	0.7915900505829933	0.5736444116603607	0.03906836411350259	0.3588568922769762	0.5755231092959053	0.03662211987133579	-0.038833129265527004	0.5731310162346317	0.08992803450122755	-0.06475743731481247	0.44853911070355784	0.01353181206079146	-0.053063574055029615	0.4414572259459149	0.04222855681839471	-0.07728420458534002	0.6080364048050386	0.1583603246301626	1.2964381504011273	0.5852798919340031	0.1891159332422567	1.5445835155934002	0.5173571196548227	0.1631809769186517	1.4324066473183763	0.4238163630516969	0.31762358693779846	1.2196303836480933	0.5577648826867324	0.3773657064456918	0.9386772838078847	0.5927631394092667	0.36683325261024513	0.7003725394020749	0.5211432124507864	0.3231124818365817	0.5835615548819515	0.4685539219431531	0.33045572503969944	0.5712444709972759	0.47352796248442497	0.35943729243271105	0.5623991209121418	0.514796952239871	0.011874112723042438	1.2304285063431242	0.5633982563301867	-0.060795195260055127	0.975742593610244	0.5561319254814713	-0.038954632280976925	0.7392275721615446	0.48975129093286573	0.004225703186216168	0.6267793451180689	0.46686927736317246	-0.018250080688852754	0.6166940209801163	0.4388196777405643	-0.05992299960376506	0.5931882509645809	0.48920165861570547	
143	2.4237288135593222	0.24569027388501863	0.7970228108338904	0.5608712117960464	0.2312446120541499	0.3613401619521536	0.597557798386358	0.23075434625800265	-0.0266514603598742	0.605752730596236	0.2155847270196467	-0.029881946897898047	0.4119381722752736	0.2716158609726539	-0.03684059438973269	0.4402920567914122	0.2159830368215176	-0.10663883126100876	0.6718685723926023	0.03812216855891145	0.7913449274253584	0.5735138748871095	0.03910155609668275	0.35903226932747423	0.5755666955779966	0.03661915911154764	-0.03883802442046342	0.5731371765487686	0.0888187231201287	-0.06457058460217537	0.4482111521137358	0.013580172428799237	-0.05305361398941082	0.4415532307173456	0.04191551854160995	-0.077220767346627	0.6080095732479117	0.158354861172068	1.296463645084367	0.5852632837991828	0.18910055826133404	1.5449660588930516	0.5175357626227985	0.16306172022129234	1.432372398069172	0.4237577529949319	0.31855724214658615	1.2195452325036773	0.5575364539485399	0.3773745883901879	0.9386677699682131	0.5927536727440711	0.3675692594622354	0.7006025168633497	0.5189884990822103	0.3230788120887923	0.5832269384100968	0.4684175883419509	0.33046634894388305	0.5708653361885798	0.473206003290883	0.3592113130348943	0.5624951671103277	0.5135714986905556	0.011872776509683634	1.2305082754240888	0.5633553581973124	-0.060641548051063705	0.9759405909919787	0.5556697948145402	-0.039300384160145155	0.7393229921654543	0.4882260264314079	0.003529208984730564	0.6269335709923999	0.46671345969263456	-0.019271970848112167	0.6158468170088449	0.44054809618213286	-0.06090870965153127	0.593452531261363	0.4884484649714761	
